<svg width="392" height="396" viewBox="0 0 392 396" fill="none" xmlns="http://www.w3.org/2000/svg">
<rect width="392.273" height="395.502" transform="matrix(-1 0 0 1 392.273 0)" fill="white"/>
<path d="M140.045 15.8436C130.666 16.2127 130.45 1.446 140.014 1.7844C138.231 1.72287 136.754 1.04607 135.647 0.0308533H138.538C140.137 0.646133 141.89 0.738425 143.335 0.0308533H144.965C143.643 1.16912 141.952 1.84593 140.076 1.7844C147.118 2.06128 145.457 9.59846 145.857 0.0308533H149.332C149.086 5.53761 149.025 11.0751 149.301 16.6742C150.039 9.96763 151.823 4.5224 154.222 0.0308533H157.604C153.853 7.53727 152.438 16.4588 153.268 25.165C155.667 48.9764 174.61 71.0957 206.808 58.3286C213.758 55.0369 219.539 51.6836 224.921 43.9311C211.636 47.6535 201.764 35.9325 194.937 24.7959C193.892 23.1039 193.554 28.2414 188.418 28.7337C185.035 29.0721 184.512 27.3493 184.605 28.303C185.496 37.4091 171.689 38.7935 170.797 29.6566C170.766 29.3797 160.956 34.0558 159.788 24.9189C159.819 24.9189 159.818 24.7651 159.849 24.5498C159.788 24.3344 159.726 24.2114 159.726 24.2114C159.08 15.0437 169.628 17.6894 169.598 17.4433C168.706 8.27561 182.514 6.98352 183.405 16.0897C183.498 17.0433 183.651 15.259 187.065 14.9206C192.2 14.4284 193.523 19.3814 194.23 17.5048C196.536 11.3212 199.55 4.83004 203.763 0.0616173H208.284C202.318 5.26073 199.058 14.3054 196.413 20.735C196.475 20.7966 196.506 20.8889 196.567 20.9504C196.536 21.0427 196.506 21.1042 196.475 21.1965C201.795 29.2259 209.268 42.0853 221.015 41.4084C230.056 40.9162 232.947 29.1028 231.655 17.5356C231.102 10.7367 229.072 4.12247 225.689 0.0923813H229.503C230.087 1.13836 230.702 2.15357 231.194 3.26107C231.317 0.830717 231.563 0.553841 230.702 0.0308533H234.977C234.884 1.81517 234.792 3.66101 234.731 5.72219C239.005 5.50685 242.972 3.29184 245.525 0.0308533H249.461C248.446 1.7844 247.124 3.35337 245.555 4.64545C242.449 7.2604 240.235 8.30637 238.851 8.67554C240.235 9.04471 242.48 10.0599 245.586 12.6749C246.755 13.6593 247.739 14.7053 248.538 15.782C247.954 17.0126 247.185 18.2431 246.232 19.4122C243.679 22.5809 241.711 24.0268 240.389 24.6421C241.834 24.7344 244.202 25.3496 247.739 27.3185C254.596 31.041 258.502 39.1011 255.55 47.4997C254.32 51.499 252.905 53.5602 251.921 54.5447C253.243 54.114 255.703 53.7756 259.855 54.237C264.314 54.7908 268.127 57.0058 270.741 60.2053C271.602 64.2661 270.926 68.6038 268.558 72.4493C266.313 75.9872 264.499 77.6792 263.33 78.4483C264.714 78.2945 267.205 78.4791 271.079 80.0173C279.475 82.9706 283.319 91.0616 281.904 98.7526C281.197 102.752 280.182 104.967 279.383 106.167C280.674 105.551 283.042 104.905 287.132 104.905C288.639 104.905 290.054 105.09 291.407 105.398C291.745 106.72 291.96 108.136 291.991 109.674C292.083 113.735 291.468 116.134 290.884 117.426C292.052 116.596 294.267 115.519 298.234 114.75C305.891 113.181 314.04 116.842 317.177 125.21C318.807 129.055 319.053 131.547 318.899 132.931C319.637 131.762 321.298 129.916 324.773 127.578C328.555 125.148 332.891 124.379 336.95 125.148C340.21 127.701 342.486 131.485 343.132 135.915C343.685 140.069 343.378 142.53 342.978 143.883C343.931 142.868 345.961 141.422 349.928 140.099C358.262 136.961 366.38 140.684 370.255 147.483C372.285 150.99 372.93 153.359 373.084 154.774C373.668 153.451 375.083 151.451 378.189 148.836C379.358 147.883 380.557 147.083 381.787 146.468C382.894 147.267 383.97 148.221 384.954 149.359C387.722 152.374 388.768 154.589 389.167 155.974C389.475 154.743 390.336 152.866 392.243 150.313V159.758C392.243 159.85 392.212 159.973 392.212 160.065H392.243V165.787C388.768 164.464 384.678 163.665 380.526 163.418C368.933 162.342 357.185 165.51 356.878 174.555C356.447 186.307 369.455 193.506 377.574 198.674C377.666 198.643 377.728 198.613 377.82 198.582C377.881 198.643 377.974 198.674 378.035 198.736C382.248 196.859 387.63 194.705 392.243 191.721V195.536C388.798 197.597 385.016 199.32 381.326 200.797C379.481 201.535 384.462 202.735 384.063 207.903C383.786 211.287 382.002 211.503 382.986 211.564C392.12 212.272 391.074 226.116 381.91 225.408C381.633 225.377 384.524 235.868 375.36 235.437C375.36 235.406 375.237 235.376 375.022 235.314C374.806 235.345 374.683 235.376 374.683 235.376C365.55 234.391 370.009 224.485 369.732 224.454C360.568 223.747 361.675 209.934 370.778 210.61C371.731 210.672 370.009 210.211 370.255 206.827C370.655 201.689 375.79 201.227 374.037 200.243C362.751 193.629 350.85 184.03 354.295 170.648C346.637 176.186 343.408 182.061 340.272 189.076C328.155 221.532 350.635 240.021 374.499 241.928C380.495 242.359 386.615 241.744 392.243 240.052V243.651C389.475 244.543 386.431 245.282 383.048 245.712C386.123 245.805 389.198 245.774 392.243 245.712V249.342C391.812 249.25 391.412 249.158 390.951 249.158C381.264 249.25 385.785 262.755 392.243 260.94V261.833C388.337 262.356 383.97 260.079 384.063 254.941C383.94 261.248 377.143 263.032 373.053 260.571C368.625 262.386 362.198 259.587 363.028 253.342C361.767 262.632 347.191 260.294 349.159 250.911C347.806 257.279 339.257 258.356 336.089 252.757C335.321 251.373 334.982 250.358 334.859 249.65C334.367 250.204 333.568 250.881 332.184 251.619C326.464 254.695 319.883 249.096 322.159 243.067C318.376 253.157 308.013 245.497 308.197 239.19C303.4 245.251 292.36 238.79 296.665 231.192C294.513 235.006 290.638 235.406 287.624 233.93C284.549 232.638 282.304 229.469 283.749 225.316C280.828 233.56 268.712 229.5 270.126 221.901C265.513 226.208 252.936 223.439 258.01 213.933C254.965 219.624 246.416 218.363 244.971 212.026C244.633 210.518 244.571 209.441 244.694 208.734C244.079 209.134 243.095 209.534 241.527 209.872C235.253 211.164 230.395 204.027 234.3 198.828C228.549 206.488 217.202 197.074 223.352 189.999C219.201 194.736 212.866 191.752 211.297 187.23C206.746 185.753 203.609 179.477 208.284 175.232C201.334 181.539 191.678 170.371 199.212 164.464C194.076 168.495 186.85 163.788 188.018 157.481C188.295 155.912 188.695 154.928 189.064 154.312C188.356 154.435 187.28 154.405 185.773 154.097C179.408 152.774 177.962 144.253 183.59 141.084C174.21 146.375 171.197 133.824 175.379 129.147C167.814 130.716 163.509 118.688 171.689 115.58C167.568 117.119 164.37 114.934 163.017 111.889C161.479 108.905 161.817 105.059 165.569 102.813C158.035 107.274 151.362 96.353 157.328 91.4307C151.023 91.7691 143.151 81.5555 153.176 77.5562C147.179 79.9557 141.46 73.4953 144.412 67.7117C145.119 66.3273 145.765 65.4967 146.318 65.0044C145.58 64.9121 144.565 64.5737 143.182 63.8354C137.523 60.7898 138.415 52.2066 144.75 50.7299C135.401 52.9142 132.757 38.3936 142.044 36.9169C135.832 37.8706 132.88 31.5024 134.602 27.0417C132.111 22.9193 133.741 16.1204 140.045 15.8436ZM183.036 28.426C182.606 23.9652 176.363 20.8273 172.673 27.2878C169.967 35.594 183.867 36.8861 183.036 28.426ZM166.153 18.5508C162.586 18.8892 161.11 21.7195 161.387 24.3652C161.633 27.0109 163.601 29.5028 167.199 29.1644C170.705 28.826 172.181 25.9957 171.935 23.35C171.658 20.6735 169.659 18.2124 166.153 18.5508ZM181.868 16.182C181.037 7.72186 167.63 11.6904 171.904 19.3199C176.763 24.9189 182.298 20.6427 181.868 16.182ZM193.061 21.258C193.061 21.1657 193.031 21.1042 193.031 21.0119C192.6 16.4896 186.634 14.7668 183.651 18.397C182.483 19.8429 182.052 21.1657 182.114 22.3348C182.268 23.5038 182.944 24.7344 184.389 25.9034C187.987 28.8567 193.523 26.0264 193.061 21.5041C193.061 21.4118 193.061 21.3503 193.061 21.258ZM380.803 160.065C389.536 159.758 387.384 153.912 381.572 150.128C375.237 152.959 372.192 158.435 380.803 160.065ZM382.863 213.164C378.404 212.795 374.222 218.425 379.942 223.162C387.661 227.285 391.351 213.81 382.863 213.164ZM375.114 233.776C377.758 234.022 380.557 232.484 380.834 228.884C381.11 225.377 378.589 223.439 375.913 223.224C373.269 223.008 370.47 224.577 370.193 228.084C369.917 231.684 372.469 233.622 375.114 233.776ZM370.624 212.21C362.136 211.564 363.705 225.439 371.977 222.547C378.343 218.732 375.083 212.549 370.624 212.21ZM373.115 210.826C374.314 212.241 375.575 212.887 376.744 213.01C377.912 213.072 379.235 212.61 380.649 211.41C384.186 208.365 382.341 202.427 377.82 202.089C377.728 202.089 377.666 202.058 377.574 202.058C377.482 202.058 377.42 202.058 377.328 202.058C372.807 201.689 370.07 207.288 373.115 210.826ZM135.863 4.67622C127.683 12.6749 145.826 20.0275 145.673 8.86012C145.673 3.84559 139.522 1.10759 135.863 4.67622ZM145.765 12.7056C144.535 14.4899 142.474 15.7513 140.076 15.8436C147.302 15.5974 146.042 23.8422 145.765 12.7056ZM142.136 36.8554C144.473 36.4862 146.749 37.3168 148.317 38.8243C146.441 27.8723 149.271 35.6863 142.136 36.8554ZM144.842 50.6684C147.149 50.1454 149.424 50.7607 151.085 52.1758C148.409 41.4084 151.915 48.9764 144.842 50.6684ZM151.023 34.2712C154.867 60.1745 164.247 84.0474 177.839 104.782C185.496 128.378 198.166 150.651 215.941 169.879C194.015 136.961 226.243 114.104 220.554 115.057C206.316 117.457 192.139 112.535 182.421 102.567C180.73 88.7543 185.804 74.6028 196.598 65.0352C200.934 61.1897 162.924 71.9879 151.023 34.2712ZM153.176 59.7438C151.823 63.5585 148.256 64.2969 148.502 64.2661C155.452 62.0819 156.344 70.3574 153.176 59.7438ZM153.268 77.4946C155.452 76.6332 157.82 76.9101 159.695 78.0484C155.39 67.7732 160.095 74.7566 153.268 77.4946ZM162.894 85.1549C162.494 87.2468 161.787 88.7235 160.864 89.7079C165.907 88.662 167.199 94.2302 162.894 85.1549ZM165.692 102.721C167.599 101.583 169.936 101.398 172.212 102.321C166.246 92.6613 172.058 98.9371 165.692 102.721ZM176.209 110.72C175.533 113.058 173.903 114.75 171.812 115.519C178.762 112.935 180.023 121.395 176.209 110.72ZM178.946 127.425C180.299 127.332 181.898 127.701 183.774 128.717C179.377 119.672 182.913 124.164 178.946 127.425ZM187.28 135.639C187.003 137.823 185.742 139.853 183.682 141.022C190.109 137.423 192.569 145.452 187.28 135.639ZM191.032 153.02C190.847 153.205 193.646 150.898 197.459 152.22C191.155 143.083 197.059 148.959 191.032 153.02ZM202.041 158.589C202.103 160.773 201.149 162.926 199.304 164.403C205.055 159.942 208.745 167.418 202.041 158.589ZM210.713 169.11C210.928 171.294 210.129 173.571 208.376 175.17C213.727 170.34 218.063 177.447 210.713 169.11ZM185.312 101.183C195.491 112.381 211.574 117.703 230.702 108.443C237.529 104.598 243.341 100.66 248.231 91.8922C238.267 95.9223 229.872 90.6924 222.891 83.186C221.415 73.0338 222.614 63.2201 231.994 57.9595C222.091 56.2675 215.387 58.3286 208.099 61.2512C188.91 70.3574 182.975 86.2316 185.312 101.183ZM258.102 84.7857C256.534 86.3854 255.027 87.7698 253.12 89.1849C249 98.9987 245.155 102.506 243.679 103.49C245.279 102.875 250.014 101.829 259.732 103.613C271.233 99.1832 267.205 107.797 258.102 84.7857ZM265.729 105.182C267.174 105.674 268.619 106.228 270.034 106.905C268.004 104.229 268.865 104.536 265.729 105.182ZM255.119 83.2167C255.334 83.0014 255.58 82.8168 255.796 82.6015C256.688 81.6785 256.472 78.0176 255.119 83.2167ZM226.458 81.4632C244.571 98.8756 255.058 89.0619 252.751 68.8499C238.482 54.4216 224.244 56.4213 226.458 81.4632ZM243.987 57.8979C243.649 57.9287 243.403 57.9902 243.064 58.021C247.954 60.236 245.217 57.7749 243.987 57.8979ZM233.962 31.5947C233.593 33.1022 233.131 34.5788 232.609 36.0247C235.069 33.9328 234.792 34.8249 233.962 31.5947ZM230.087 41.6546C225.382 50.3608 221.569 53.4064 220.123 54.2678C221.815 53.7448 226.95 52.9449 237.16 55.8675C239.466 55.2215 241.465 54.9446 243.71 54.7293C231.502 33.1945 240.727 35.471 230.087 41.6546ZM244.848 16.182C240.973 10.4291 235.069 8.39866 234.946 17.1664C236.76 25.7188 242.173 22.5809 244.848 16.182ZM253.366 41.7161C253.305 33.2867 244.94 27.2262 236.945 28.3953C246.355 69.9882 253.459 47.2228 253.366 41.7161ZM265.882 70.7573C267.635 67.927 267.974 64.7583 267.482 61.805C265.483 59.5592 262.807 57.8672 259.517 57.4365C255.98 57.0366 252.874 57.6518 250.23 59.1593C252.382 62.328 254.35 65.0044 256.165 67.2194C256.749 70.019 257.61 73.2492 258.748 76.9101C261.546 75.8026 263.976 73.7722 265.882 70.7573ZM274.278 85.401C270.065 81.8939 247.831 73.1569 274.339 106.567C280.305 101.029 280.828 90.7231 274.278 85.401ZM288.823 108.043C282.181 106.136 276.338 108.382 281.873 115.15C288.762 120.564 290.884 114.688 288.823 108.043ZM279.536 117.549C271.356 109.274 260.316 104.136 254.258 110.874C246.355 119.611 251.706 133.485 254.627 142.653C254.719 142.684 254.781 142.714 254.873 142.714C254.904 142.807 254.935 142.868 254.965 142.96C264.222 145.698 278.183 150.713 286.763 142.653C293.344 136.5 287.993 125.579 279.536 117.549ZM234.977 157.358C242.326 158.527 243.802 151.697 240.604 148.559C234.515 142.622 226.797 154.282 234.977 157.358ZM230.056 160.465C227.535 163.019 228.242 166.156 230.148 168.002C232.024 169.879 235.161 170.525 237.683 167.941C240.143 165.418 239.466 162.311 237.56 160.434C235.653 158.558 232.516 157.943 230.056 160.465ZM240.666 162.957C243.925 171.079 255.396 163.111 249.338 157.173C246.14 154.035 239.374 155.635 240.666 162.957ZM244.725 153.113C245.586 153.912 246.908 154.405 248.753 154.405C253.428 154.343 255.826 148.621 252.598 145.452C252.536 145.391 252.474 145.329 252.413 145.268C252.351 145.206 252.29 145.145 252.228 145.114C249 141.945 243.31 144.468 243.372 149.144C243.403 150.959 243.925 152.251 244.725 153.113ZM256.134 146.683C254.227 146.037 257.272 150.19 253.674 153.882C251.306 156.312 249.799 155.328 250.476 156.004C257.026 162.403 247.339 172.34 240.758 165.91C240.573 165.726 236.053 175.601 229.287 169.356C229.287 169.325 229.226 169.233 229.103 169.048C228.918 168.925 228.795 168.864 228.795 168.864C222.43 162.249 232.209 157.512 232.024 157.327C225.443 150.898 235.192 140.992 241.711 147.421C242.419 148.098 241.373 146.621 243.772 144.191C247.4 140.499 251.583 143.453 250.906 141.576C246.509 129.27 243.556 114.227 254.781 106.197C245.371 105.521 239.128 107.92 232.209 111.304C202.072 128.409 207.423 157.02 224.459 173.817C241.619 190.522 270.311 195.29 286.794 164.772C290.023 157.789 292.298 151.482 291.407 142.068C283.596 153.482 268.527 150.836 256.134 146.683ZM223.445 189.937C225.013 188.153 227.289 187.322 229.441 187.476C220.954 180.277 228.15 184.461 223.445 189.937ZM292.175 131.116C292.76 127.948 293.067 128.809 290.392 126.84C291.068 128.255 291.683 129.67 292.175 131.116ZM311.764 122.133C306.321 115.704 296.019 116.442 290.607 122.502C324.557 148.313 315.362 126.286 311.764 122.133ZM294.359 153.113C295.312 151.636 298.726 147.729 308.443 143.391C309.796 141.422 311.149 139.915 312.718 138.315C289.531 129.67 298.049 125.486 293.867 137.054C295.896 146.744 294.943 151.513 294.359 153.113ZM314.963 140.561C314.717 140.807 314.563 141.022 314.348 141.238C319.514 139.792 315.855 139.669 314.963 140.561ZM316.685 169.879C341.779 171.571 343.47 157.296 328.74 143.33C308.505 141.422 298.91 152.128 316.685 169.879ZM339.995 136.346C339.503 133.054 337.75 130.409 335.474 128.471C332.522 128.04 329.355 128.471 326.556 130.255C323.604 132.224 321.605 134.685 320.56 137.546C324.25 138.592 327.479 139.361 330.277 139.915C332.522 141.668 335.259 143.606 338.457 145.668C339.933 142.991 340.487 139.884 339.995 136.346ZM339.78 152.774C339.81 152.467 339.872 152.19 339.903 151.851C339.995 150.621 337.473 147.944 339.78 152.774ZM355.863 142.13C350.389 142.161 327.756 149.759 369.517 158.281C370.501 150.251 364.289 142.038 355.863 142.13ZM366.411 161.357C363.151 160.619 364.012 160.281 362.013 162.803C363.428 162.249 364.904 161.757 366.411 161.357ZM344.023 175.663C344.854 174.186 347.806 170.31 356.417 165.418C362.382 154.682 364.843 163.849 343.07 152.067C342.886 154.312 342.64 156.343 342.055 158.65C345.192 168.802 344.515 173.971 344.023 175.663ZM337.289 187.814C340.056 180.462 341.963 173.724 340.087 163.849C335.044 173.355 325.234 174.74 315.086 173.478C307.428 166.649 302.047 158.373 305.86 148.313C297.188 153.389 293.375 159.265 289.654 166.187C280.797 185.507 286.425 201.474 297.865 211.441C312.841 213.472 328.555 207.196 337.289 187.814ZM387.107 249.158C375.975 249.096 384.186 247.712 384.093 254.911C384.124 252.542 385.323 250.45 387.107 249.158ZM365.396 257.649C368.041 261.033 371.054 260.756 373.176 259.002C374.991 261.063 377.912 261.802 381.049 258.848C384.585 255.557 382.433 249.158 377.266 248.881C375.883 248.85 374.775 249.096 373.884 249.558C373.084 248.973 372.039 248.573 370.655 248.389C365.55 247.866 362.413 253.834 365.396 257.649ZM363.028 253.311C364.043 246.174 371.916 248.819 360.906 247.158C362.475 248.696 363.336 250.942 363.028 253.311ZM351.312 255.526C357.77 264.97 368.164 248.389 357.124 246.574C352.203 245.712 348.421 251.281 351.312 255.526ZM349.19 250.881C350.727 243.774 358.354 247.127 347.56 244.666C349.005 246.297 349.651 248.573 349.19 250.881ZM337.227 252.142C342.855 262.14 354.694 246.789 343.716 243.713C338.98 242.482 334.798 247.835 337.227 252.142ZM335.536 247.497C335.505 247.773 336.151 244.174 339.964 242.728C329.232 239.775 337.535 240.513 335.536 247.497ZM323.573 247.866C328.555 258.295 341.286 243.22 330.646 239.898C325.849 238.329 321.421 243.343 323.573 247.866ZM322.189 243.005C324.803 236.145 331.846 240.698 321.482 236.575C322.681 238.421 323.02 240.79 322.189 243.005ZM320.99 242.574C323.604 235.56 313.61 231.222 310.35 238.114C307.09 245.066 318.253 249.927 320.99 242.574ZM309.827 235.652C310.811 234.729 312.257 233.96 314.348 233.53C305.153 229.438 310.75 230.607 309.827 235.652ZM297.311 236.052C300.571 247.22 315.67 234.268 305.491 229.346C301.217 227.038 295.927 231.222 297.311 236.052ZM296.973 224.608C297.957 226.823 297.803 229.161 296.696 231.13C300.355 224.67 306.783 230.361 296.973 224.608ZM288.147 232.853C292.022 234.514 297.619 231.745 296.173 226.146C295.681 224.054 294.451 222.793 292.975 222.209C291.56 221.47 289.808 221.378 287.901 222.393C282.735 225.008 284.334 231.038 288.147 232.853ZM283.811 225.254C284.549 223.162 286.21 221.501 288.516 220.763C277.753 217.163 286.24 218.271 283.811 225.254ZM279.659 228.054C284.241 225.931 283.872 219.194 279.321 217.471C268.927 213.072 269.111 232.976 279.659 228.054ZM271.756 218.363C274.954 214.333 279.506 217.779 270.372 213.564C271.418 215.44 271.818 217.009 271.756 218.363ZM269.542 219.594C272.586 212.61 262.746 207.934 259.178 214.518C255.488 221.409 266.467 226.639 269.542 219.594ZM263.361 210.211C253.428 205.104 261.516 207.442 258.071 213.902C259.209 211.841 261.208 210.518 263.361 210.211ZM294.42 219.009C315.424 232.176 339.472 241.067 365.458 244.359C327.51 233.253 337.504 195.013 333.752 199.412C324.404 210.395 310.35 215.748 296.542 214.364C286.394 204.888 281.166 190.798 283.288 176.493C284.149 170.802 261.946 203.473 228.58 182.246C248.169 199.597 270.68 211.841 294.42 219.009ZM253.489 216.086C258.317 214.733 259.178 208.088 254.842 205.534C245.309 199.689 242.388 219.194 253.489 216.086ZM246.601 200.366C248.015 204.181 245.74 207.011 245.924 206.827C249.861 200.704 255.857 206.457 246.601 200.366ZM241.311 208.611C246.14 207.596 247.431 200.92 243.372 198.182C233.839 191.937 230.087 210.918 241.311 208.611ZM240.143 195.905C231.163 189.414 238.728 192.921 234.392 198.766C235.807 196.89 237.96 195.905 240.143 195.905ZM229.503 200.243C234.577 199.628 236.299 193.106 232.393 189.968C223.783 182.861 218.155 201.597 229.503 200.243ZM207.392 180C207.238 184.307 209.729 186.03 212.466 186.03C212.528 188.768 214.28 191.229 218.586 190.983C223.414 190.737 225.843 184.461 222.091 180.892C221.046 179.97 220.031 179.447 219.078 179.231C218.832 178.278 218.278 177.293 217.356 176.247C213.758 172.617 207.546 175.17 207.392 180ZM197.951 169.325C196.813 180.708 215.449 174.678 208.161 166.218C204.932 162.373 198.474 164.218 197.951 169.325ZM199.735 155.389C196.906 151.39 190.232 152.805 189.34 157.666C187.249 168.956 206.162 164.803 199.735 155.389ZM181.622 145.637C178.731 156.835 198.166 153.482 192.139 144.068C189.494 139.792 182.883 140.776 181.622 145.637ZM183.036 139.915C189.525 136.223 184.666 126.471 177.747 129.67C170.797 132.901 176.24 143.76 183.036 139.915ZM169.106 119.703C164.401 130.347 184.297 130.132 179.684 119.826C177.87 115.304 171.135 115.088 169.106 119.703ZM164.124 111.335C166 115.088 172.089 116.565 174.579 111.366C175.533 109.428 175.41 107.674 174.641 106.29C174.026 104.844 172.765 103.613 170.643 103.183C165.046 101.86 162.402 107.52 164.124 111.335ZM160.741 102.229C165.6 103.552 169.69 98.1373 167.291 93.8918C162.125 83.832 149.486 99.214 160.741 102.229ZM158.404 89.2157C165.231 85.8317 160.68 75.9257 153.73 78.6637C146.441 81.5862 151.515 92.6305 158.404 89.2157ZM148.379 76.2025C152.961 78.2637 157.881 73.7414 156.19 68.973C152.623 58.3902 137.831 71.4649 148.379 76.2025ZM143.858 62.6356C148.194 64.9737 153.484 60.6667 152.13 55.9598C148.84 45.0694 133.741 57.2211 143.858 62.6356ZM140.168 48.638C144.473 51.4375 149.947 47.5305 148.994 42.639C146.964 31.6563 130.604 42.3929 140.168 48.638ZM137.769 34.5788C141.644 37.5014 147.518 34.2404 146.933 29.1336C146.718 27.7492 146.288 26.7032 145.673 25.9341C146.103 25.042 146.318 23.9345 146.288 22.5501C145.888 17.4125 139.461 15.3821 136.232 18.9815C133.372 22.1809 134.171 25.1035 136.262 26.8571C134.54 28.9798 134.325 31.9947 137.769 34.5788Z" fill="#B68E59" fill-opacity="0.5"/>
<path d="M256.841 0.0308533H258.563C258.133 4.70698 258.102 9.62922 258.625 14.8283C260.409 33.1022 267.512 47.069 277.599 56.9443C278.983 71.0034 285.379 85.3087 298.51 98.1373C311.641 110.997 326.033 117.119 340.118 118.195C350.205 128.071 364.32 134.9 382.617 136.315C385.939 136.592 389.137 136.592 392.243 136.469V138.254C388.983 138.407 385.723 138.407 382.494 138.161C366.595 136.931 351.066 130.901 339.195 120.318C323.42 118.38 308.659 110.658 297.25 99.4909C285.871 88.3236 277.845 73.7107 275.569 57.9595C264.745 46.3307 258.379 30.9179 256.811 15.0129C256.319 10.0292 256.38 5.01462 256.841 0.0308533Z" fill="#B68E59" fill-opacity="0.5"/>
<path d="M265.052 0.0308533H266.805C264.96 4.61469 264.253 9.4754 264.714 14.2438C265.421 21.3503 268.619 28.2107 274.247 33.4098C273.97 26.1495 276.184 18.7661 280.982 12.6441C276.892 9.10624 273.939 4.76851 272.125 0.0308533H273.14C274.432 3.47642 277.261 7.32192 281.997 11.4135C293.313 -1.6304 295.466 6.42977 294.205 0.0308533H296.604C296.481 0.584605 296.327 1.23065 296.173 1.99975C297.834 1.446 299.556 1.04607 301.278 0.799954C301.001 0.523077 300.725 0.276965 300.479 0.0308533H303.431C307.029 1.59982 309.95 -1.44582 320.375 3.81483C319.576 2.79961 318.837 1.47676 318.099 0.0308533H319.729C321.082 2.24586 322.712 4.30705 324.65 6.15289C324.342 4.03017 323.727 1.99975 322.958 0.0308533H326.987C326.649 1.96899 326.464 3.93788 326.526 5.96831C327.817 4.12247 328.924 2.12281 329.754 0.0308533H331.538C331.169 0.892246 330.769 1.81517 330.247 2.83038C331.569 1.81517 333.291 0.92301 335.167 0.0308533H338.304C334.46 1.59982 330.923 3.96865 327.909 7.13734C333.598 6.15289 338.642 3.63024 342.732 0.0308533H345.192C341.348 4.21476 338.304 6.30671 336.212 7.22963C338.826 7.81415 342.947 9.69075 348.729 14.3361C356.57 13.5055 356.663 12.7672 355.924 5.32226C355.678 2.92267 355.494 1.23065 355.094 0.0616173H356.57C357.032 1.75364 357.401 3.44566 357.554 5.16844C357.77 7.47574 357.739 9.78304 357.462 12.0903C364.966 8.89089 367.61 6.30671 367.364 4.21476C367.241 2.73809 365.673 1.32294 362.106 0.0308533H365.734C366.872 0.892246 368.072 1.81517 369.425 2.86114C370.132 1.93822 370.778 0.984538 371.393 0.0308533H373.207C372.438 1.35371 371.608 2.64579 370.655 3.87635C372.715 5.6299 374.499 7.62956 376.006 9.81381C376.774 12.3672 377.205 15.0129 377.297 17.7202C380.003 17.7509 382.648 18.1201 385.231 18.8277C387.415 20.3043 389.444 22.0579 391.259 24.0883C391.597 23.8114 391.935 23.6268 392.243 23.3807V27.8415C391.843 27.5646 391.412 27.4108 391.013 27.3801C388.921 27.1955 386.4 29.8719 383.355 37.4399C385.662 37.1015 387.937 37.04 390.244 37.1938C390.92 37.2553 391.597 37.3784 392.243 37.4707V38.9781C391.597 38.9166 390.92 38.855 390.152 38.7935C382.679 38.209 381.941 38.332 381.295 46.1769C386.062 51.8682 387.999 55.9598 388.645 58.544C389.26 57.1289 390.367 55.2522 392.273 53.0065V56.9135C390.613 59.9284 389.444 63.2817 388.921 66.8503C390.152 65.6505 391.259 64.3276 392.243 62.9125V66.7888C391.505 67.2502 390.767 67.7424 390.059 68.2347C390.797 68.2347 391.505 68.2039 392.243 68.1424V70.4804C391.474 70.2959 390.705 70.1728 389.936 70.0497C390.674 70.8188 391.443 71.5264 392.243 72.1725V77.8946C391.32 75.5873 390.09 73.3723 388.552 71.2803C388.522 76.5102 389.875 81.494 392.243 85.8624V89.1542C389.014 84.8472 387.538 81.617 387.015 79.4635C385.969 81.9246 383.417 85.6779 377.851 90.5693C377.328 98.4142 378.004 98.6603 385.477 99.2448C389.014 99.5217 391.013 99.614 392.243 98.8448V100.598C389.875 100.937 387.599 100.998 385.354 100.845C383.109 100.66 380.864 100.26 378.558 99.5524C380.157 106.444 382.187 110.504 384.585 110.689C387.015 110.843 389.598 107.182 392.243 100.629V105.151C391.166 107.059 389.229 109.581 385.569 112.904C387.907 115.488 390.121 117.457 392.243 118.934V120.287C389.352 118.657 386.677 116.534 384.339 113.95C378.312 118.872 370.993 121.21 363.705 121.118C369.056 126.625 375.975 129.701 383.079 130.255C386.154 130.47 389.229 130.224 392.243 129.517V131.178C389.198 131.855 386.062 132.07 382.956 131.824C374.929 131.209 367.149 127.548 361.429 120.995C354.11 120.349 347.621 117.334 342.609 112.719C335.874 111.981 329.293 109.089 324.004 103.982C315.301 103.982 307.428 100.537 301.678 94.9071C295.927 89.2772 292.329 81.4632 292.145 72.757C286.948 67.5579 283.903 61.0666 283.042 54.3293C278.337 49.4379 275.17 42.9774 274.401 35.6863C267.728 30.0873 263.914 22.3655 263.145 14.3669C262.653 9.59846 263.299 4.67622 265.052 0.0308533ZM294.051 11.352C293.836 9.137 293.867 6.86046 294.144 4.46087C287.624 7.22963 283.995 9.93686 284.211 12.3365C284.457 14.736 288.547 16.6742 295.466 18.1201C294.759 15.8436 294.267 13.5978 294.051 11.352ZM302.877 2.18433C295.066 3.01496 294.943 3.72253 295.681 11.1982C296.419 18.6738 296.696 19.3507 304.507 18.6431C309.274 12.9825 312.964 10.3368 315.424 9.26006C312.779 8.67554 308.659 6.8297 302.877 2.18433ZM336.12 71.6187C336.151 64.2046 337.289 59.8053 338.427 57.4057C336.059 58.6055 331.692 59.8361 324.281 60.0207C318.837 65.6813 319.207 66.2965 324.557 71.5572C329.939 76.8178 330.554 77.187 336.12 71.6187ZM332.061 76.9409C338.734 80.3249 336.52 78.8482 336.182 73.7107C334.89 74.9105 333.537 75.9872 332.061 76.9409ZM358.6 77.4946C358.846 78.233 359.276 79.3097 359.953 80.8479C360.999 79.4635 362.167 78.2022 363.428 76.9716C361.46 76.7255 360.045 76.2025 359.246 76.0795C358.631 75.5565 357.339 74.8182 355.832 73.5261C355.771 75.2796 355.555 77.0024 355.217 78.6944C356.786 78.1714 357.893 77.8023 358.6 77.4946ZM368.656 94.4764C364.935 91.6768 361.89 88.1082 359.707 84.0166C352.419 95.6762 353.926 100.783 368.656 94.4764ZM355.863 71.4341C357.554 73.0646 358.784 74.1721 359.83 74.7874C360.968 75.1873 362.628 75.3719 364.966 75.5873C370.685 70.7881 374.776 68.8499 377.359 68.2039C374.991 67.1887 371.393 64.7891 366.749 59.5592C359.738 59.4669 355.586 58.3594 353.249 57.2519C354.479 59.6207 355.709 63.9585 355.863 71.4341ZM346.699 52.1143C347.252 58.8209 349.959 64.8814 354.172 69.619C353.618 63.0971 351.035 57.0058 346.699 52.1143ZM365.427 41.5315C359.123 42.0545 352.972 44.5464 347.96 48.9764C354.633 48.4226 360.691 45.7154 365.427 41.5315ZM353.741 30.0565C349.651 34.8865 347.068 41.0085 346.637 47.6843C350.973 42.5775 353.341 36.3939 353.741 30.0565ZM353.095 42.4237C355.463 41.2239 359.83 39.9625 367.241 39.8087C372.715 34.1174 372.315 33.5021 366.964 28.2722C361.614 23.0116 360.968 22.6424 355.432 28.2415C355.402 35.6556 354.264 40.0241 353.095 42.4237ZM369.332 39.8702C371.085 39.9318 372.807 40.1471 374.499 40.5163C372.223 33.4098 372.777 35.9632 369.332 39.8702ZM352.788 49.8378C363.705 52.1759 364.504 56.1136 367.733 57.375C370.839 58.9747 374.314 56.975 383.263 63.6816C379.942 57.375 379.604 43.4696 374.714 42.0237C370.378 39.3165 359.707 48.2073 352.788 49.8378ZM347.96 50.8222C353.095 55.16 359.276 57.5288 365.611 57.9287C360.63 53.6833 354.51 51.1914 347.96 50.8222ZM368.717 59.3131C373.176 63.8046 379.05 66.9426 385.692 67.927C381.08 63.2817 375.206 60.2976 368.717 59.3131ZM367.457 75.6488C373.791 75.6796 380.157 73.7414 385.539 69.7421C379.019 69.7113 372.715 71.7725 367.457 75.6488ZM352.972 80.971C348.452 82.0169 343.747 82.0785 339.195 81.1248C344.177 96.353 349.005 94.138 352.972 80.971ZM347.345 93.8303C348.298 94.6917 349.221 95.4916 350.112 96.2299C351.25 96.4453 352.45 96.5991 353.741 96.7221C354.233 91.7999 354.725 88.0159 355.156 85.0933C353.218 87.3699 350.697 90.2309 347.345 93.8303ZM345.838 56.9443C342.424 72.8185 335.567 67.3117 338.703 79.3712C367.026 86.0778 348.267 67.281 345.838 56.9443ZM344.854 52.1451C340.518 57.2519 338.15 63.4662 337.75 69.7729C341.871 64.9429 344.454 58.8209 344.854 52.1451ZM314.594 43.3466C301.524 47.592 299.402 52.4835 314.717 57.1289C313.671 52.6065 313.64 47.8997 314.594 43.3466ZM318.345 32.8253C317.177 34.1174 315.916 35.3172 314.563 36.3632C316.131 36.9784 317.208 37.4091 317.946 37.6245C317.638 38.332 317.3 39.4396 316.808 41.07C318.499 40.6701 320.191 40.4548 321.943 40.3317C320.59 38.855 319.852 37.5937 319.299 36.9784C319.176 36.1786 318.653 34.7942 318.345 32.8253ZM321.359 13.6901C308.566 23.6576 306.844 15.0437 301.493 26.2726C318.868 49.6532 316.593 23.1962 321.359 13.6901ZM316.5 57.5903C328.617 60.4821 322.958 53.7448 338.765 49.9916C328.34 47.7766 309.181 29.3797 316.5 57.5903ZM319.022 64.1738C319.945 62.6971 320.99 61.282 322.159 59.9591C317.023 59.7746 315.516 57.5903 319.022 64.1738ZM326.095 58.3287C332.399 57.8057 338.55 55.3138 343.562 50.8838C336.889 51.4068 330.831 54.114 326.095 58.3287ZM343.562 49.0379C338.58 44.7925 332.43 42.3314 325.91 41.9314C330.739 46.023 336.858 48.6072 343.562 49.0379ZM344.823 47.7458C344.3 41.2239 341.686 35.1326 337.381 30.2411C337.904 36.5477 340.395 42.7005 344.823 47.7458ZM323.45 72.7262C321.851 71.1572 320.406 69.3729 319.084 67.3733C315.885 73.6799 314.84 78.0791 316.531 79.7712C318.253 81.4632 322.62 80.3249 328.893 76.9716C326.833 75.7103 325.049 74.2952 323.45 72.7262ZM301.862 51.499C290.546 63.6508 289.346 80.1403 314.225 80.5095C314.624 55.8983 328.34 76.141 301.862 51.499ZM310.411 41.2546C307.49 41.7468 303.707 42.3006 298.818 42.9159C298.972 44.208 299.156 45.4078 299.402 46.5153C300.14 47.4074 300.971 48.2996 301.862 49.2225C305.368 45.8077 308.197 43.2235 310.411 41.2546ZM311.395 36.6708C307.244 34.5481 303.615 31.564 300.755 27.9338C294.759 42.7928 299.894 44.208 311.395 36.6708ZM303.185 20.3351C301.432 20.4274 299.679 20.3659 297.957 20.1505C300.878 27.0109 300.14 24.4882 303.185 20.3351ZM305.337 2.03051C310.504 5.69143 316.808 7.72186 323.512 7.56804C318.038 3.69177 311.672 1.87669 305.337 2.03051ZM306.936 18.3354C313.179 17.2587 319.084 14.2438 323.696 9.38311C317.085 10.5214 311.303 13.7516 306.936 18.3354ZM319.576 28.7337C323.358 23.3807 325.265 17.0741 325.111 10.5214C321.236 16.0281 319.422 22.4271 319.576 28.7337ZM319.729 31.2256C319.975 33.5636 320.221 35.1941 320.621 36.3324C321.267 37.3784 322.374 38.5782 324.035 40.2394C331.477 40.2394 335.843 41.4084 338.242 42.5775C337.073 40.2702 335.874 36.1478 335.659 29.1336C330.339 24.5805 327.879 21.0427 326.802 18.6738C326.249 21.2888 324.404 25.4112 319.729 31.2256ZM326.925 10.3676C328.063 16.9818 331.292 22.7962 335.874 27.1647C334.798 20.7043 331.692 14.8591 326.925 10.3676ZM328.094 8.95242C333.568 12.8287 339.964 14.6438 346.268 14.4899C341.102 10.829 334.798 8.76783 328.094 8.95242ZM331.231 12.7056C338.088 21.5041 336.182 25.042 337.842 28.0876C339.165 31.3179 343.132 32.0254 345.684 42.8851C347.191 35.9325 355.863 25.0728 353.034 20.7966C351.496 15.9666 337.596 15.9051 331.231 12.7056ZM350.328 15.7205C351.619 16.8895 352.819 18.1816 353.895 19.5352C356.693 12.6133 355.494 14.9206 350.328 15.7205ZM354.571 20.9504C354.971 22.6424 355.217 24.3652 355.309 26.1187C359.153 22.6116 361.706 23.1039 354.571 20.9504ZM374.683 10.4599C373.269 8.58325 371.547 6.76817 369.609 5.10691C362.475 13.3517 358.508 17.1664 356.57 19.1353C359.338 18.8277 364.781 18.1509 375.667 17.7509C375.606 15.1975 375.268 12.7364 374.683 10.4599ZM374.991 20.089C373.515 18.6123 369.855 19.043 362.659 22.8885C364.597 24.0883 366.411 25.5035 368.072 27.1339C369.732 28.7644 371.178 30.5488 372.438 32.4869C376.129 25.1958 376.498 21.5349 374.991 20.089ZM375.944 41.1623C377.328 42.2083 378.62 43.3773 379.85 44.6387C380.526 39.4703 382.802 38.209 375.944 41.1623ZM390.059 25.1035C388.337 23.1962 386.523 21.5349 384.616 20.1505C382.341 19.6275 379.85 19.3507 377.297 19.3199C377.113 30.2411 376.559 35.6863 376.313 38.4551C378.25 36.4554 381.971 32.4254 390.059 25.1035ZM387.076 66.7272C387.107 60.0207 384.924 53.7448 381.172 48.6688C381.141 55.0061 383.079 61.3435 387.076 66.7272ZM386.738 71.1265C381.971 75.8334 379.081 81.8324 378.127 88.0775C382.617 83.6474 385.723 77.7715 386.738 71.1265ZM382.494 73.5876C373.084 78.5714 346.607 76.8178 370.316 93.7073C381.449 88.1082 372.777 86.6008 382.494 73.5876ZM376.498 97.1221C376.252 95.3685 376.159 93.6457 376.19 91.8922C372.131 95.0301 369.578 94.3225 376.498 97.1221ZM383.294 112.719C367.795 93.615 391.32 100.291 355.186 98.4449C354.325 115.027 364.012 128.44 383.294 112.719ZM343.316 111.212C347.744 115.427 353.495 118.318 360.015 119.211C355.617 113.396 353.188 106.105 353.618 98.3219C352.203 98.168 350.82 97.9527 349.497 97.6143C348.359 96.8144 347.283 95.9223 346.268 94.9686C340.702 100.414 333.598 103.367 326.341 103.89C331.261 108.228 337.227 110.627 343.316 111.212ZM345.069 93.8611C319.883 67.8655 340.425 81.1863 315.824 82.1092C316.716 106.967 333.168 105.428 345.069 93.8611ZM302.816 93.7996C307.921 98.7833 314.778 101.983 322.435 102.383C317.577 96.9683 314.501 89.9233 314.225 82.14C306.444 82.0477 299.341 79.1251 293.836 74.3567C294.39 81.9862 297.711 88.785 302.816 93.7996ZM284.549 53.6218C285.225 59.713 287.778 65.6197 292.175 70.4804C292.544 63.2201 295.374 56.0521 300.694 50.3608C299.71 49.3456 298.787 48.2688 297.988 47.1613C297.649 45.8385 297.373 44.4541 297.219 43.0389C289.469 43.6235 282.12 41.3469 276.215 37.0707C277.261 43.5927 280.244 49.284 284.549 53.6218ZM297.065 41.47C294.482 5.38379 301.647 28.7644 282.212 13.6593C266.897 33.2867 280.49 42.7005 297.065 41.47Z" fill="#B68E59" fill-opacity="0.5"/>
<path d="M4.52051 37.5321C13.1003 32.6406 23.9558 15.7819 37.6405 0.030764H44.0677C30.137 15.1051 18.7895 32.4253 10.5787 39.1318C34.4423 51.9296 91.8872 128.224 131.865 61.6511C127.098 44.3002 132.172 56.3597 127.037 62.8201C123.254 67.5578 109.969 68.4499 115.136 47.4381C94.7779 83.2474 68.6386 61.6511 106.002 36.3323C93.2402 41.3161 70.8835 48.6071 66.7012 35.4709C56.7683 51.9912 44.7442 52.3603 33.3045 38.5473C32.9969 41.5622 31.0288 44.0541 28.3534 44.3617C22.6642 45.0385 21.2189 41.6545 21.9262 37.9936C20.5424 34.548 21.2804 30.9486 27.0003 30.5179C29.7065 30.3025 32.1051 32.3637 32.9969 35.2556C41.546 19.4736 53.4163 17.5047 66.3629 31.7792C67.9005 18.0892 91.2721 20.8888 104.742 23.3191C85.6137 15.2282 79.8324 5.32217 81.8005 0H85.4292C83.9531 2.21501 84.0761 5.62981 84.5989 6.67579C89.0272 16.028 112.399 24.2113 121.194 26.6724C108.985 11.0135 100.682 3.29175 95.1161 0.030764H99.5444C103.265 2.33806 107.355 5.8144 111.538 10.6751C109.477 6.24509 108.586 2.76876 108.432 0.030764H110.615C111.199 7.81406 119.533 20.6119 123.408 25.5034C123.685 12.6748 122.701 4.76842 121.194 0.030764H124.115C124.884 2.86105 124.638 4.30696 124.823 0.030764H130.973C130.327 8.95233 130.235 18.0585 130.85 27.3492C135.032 60.0513 147.518 89.2464 161.633 112.535C170.92 138.161 185.835 166.187 208.684 189.906C232.885 212.272 261.208 226.608 286.978 235.375C310.565 249.035 339.995 260.91 372.746 264.386C379.358 264.694 385.846 264.632 392.243 264.294V272.077C387.784 271.646 382.064 271.492 374.745 271.8C378.22 274.446 385.508 279.122 392.243 281.891V284.352C391.443 284.044 390.674 283.767 389.813 283.398C390.674 284.075 391.474 284.782 392.243 285.49V289.52C387.814 285.244 381.818 280.137 373.668 274.046C376.067 282.137 383.663 302.564 392.243 308.963V310.932C387.538 307.763 382.187 301.333 377.297 290.443C380.003 303.887 383.263 327.175 369.64 329.021C384.186 341.665 382.464 353.571 366.872 362.462C369.794 363.292 371.885 365.63 371.731 368.337C371.424 374.06 367.826 374.89 364.351 373.567C360.722 374.336 357.278 372.983 357.862 367.261C358.139 364.554 360.568 362.554 363.582 362.185C349.528 351.017 349.651 338.989 365.95 328.713C352.757 324.806 359.553 302.287 364.258 289.428C339.749 327.36 317.607 301.641 352.972 280.537C332.092 286.167 332.676 272.846 337.35 268.97C343.716 263.678 355.863 268.508 338.427 264.109C272.709 305.487 350.174 361.354 363.459 384.95C368.625 378.397 380.28 369.722 392.212 359.385V365.507C380.065 375.659 368.902 384.089 365.181 390.949C363.551 393.964 363.028 395.471 362.628 395.502C362.259 395.41 361.952 393.841 360.814 390.611C353.987 371.414 298.572 333.913 308.905 293.027C298.326 316.162 269.819 323.33 245.094 327.729C232.117 306.194 218.739 280.014 229.164 256.818C205.209 291.52 140.506 274.507 121.563 282.014C118.395 283.275 117.012 284.075 116.673 283.86C116.427 283.552 117.227 282.137 118.426 278.937C125.53 259.864 107.171 195.474 141.367 170.802C118.395 181.723 91.9487 168.894 70.1762 156.343C74.0509 131.516 80.6319 102.844 103.542 91.7998C62.888 102.998 24.2326 48.3303 4.9203 41.9006C1.69134 40.8238 0.0922096 40.547 -4.66377e-05 40.1778C0.0614575 39.7779 1.56831 39.2241 4.52051 37.5321ZM34.8421 36.7322V36.763C34.8421 36.7938 34.8421 36.7938 34.8421 36.7938C34.35 37.3167 50.8331 58.9438 65.4096 33.7481C46.2203 11.9057 34.2578 36.3323 34.8421 36.7322ZM68.5771 33.4712C71.314 49.0994 103.235 35.3786 118.395 28.5798C102.22 24.8573 68.2388 17.597 68.5771 33.4712ZM89.4578 56.575C88.6274 59.8668 94.8701 82.7244 121.501 29.9026C113.352 34.025 92.0102 46.5767 89.4578 56.575ZM123.9 30.6102C120.733 36.7938 114.09 53.5294 116.796 60.3898C117.996 63.3431 133.156 72.6954 123.9 30.6102ZM365.304 360.616H365.335C365.365 360.616 365.365 360.616 365.365 360.616C365.765 361.2 389.936 348.71 367.672 329.975C342.855 345.08 364.812 361.139 365.304 360.616ZM367.949 326.806C383.817 326.806 375.821 292.996 371.793 276.876C365.335 292.197 352.296 324.376 367.949 326.806ZM344.392 306.41C354.325 303.641 366.442 282.044 370.378 273.8C318.161 301.518 341.133 307.302 344.392 306.41ZM340.056 279.122C346.945 281.706 363.551 274.723 369.671 271.4C327.387 263.032 337.043 278.014 340.056 279.122ZM311.518 285.705C315.455 277.153 322.343 269.339 332.215 262.479C290.73 250.542 320.959 247.804 311.518 285.705ZM133.618 67.8962C126.945 77.8945 119.287 84.9702 110.83 89.0618C148.502 78.8174 146.38 109.089 133.618 67.8962ZM154.252 116.073C136.078 87.2467 121.471 103.521 148.532 118.811C143.489 149.482 165.323 148.283 154.252 116.073ZM148.071 166.833C156.559 162.834 166.891 161.265 178.854 162.342C154.744 126.563 179.684 143.914 148.071 166.833ZM174.149 180.185C177.778 186.614 194.999 191.906 201.795 193.321C174.795 159.696 172.581 177.385 174.149 180.185ZM164.893 234.637C177.04 244.851 192.662 213.81 199.919 198.859C185.158 206.426 154.468 222.701 164.893 234.637ZM162.678 236.914C133.925 232.514 140.445 258.91 141.152 258.848C141.152 258.848 141.152 258.879 141.183 258.879C141.183 258.91 141.213 258.91 141.213 258.91C141.152 259.617 167.691 265.586 162.678 236.914ZM195.768 238.913C197.244 241.99 216.71 255.464 203.179 197.874C199.55 206.273 191.278 229.623 195.768 238.913ZM200.842 195.598C142.997 183.261 156.866 202.458 159.972 203.873C169.382 208.149 192.539 199.382 200.842 195.598ZM205.455 196.89C206.992 203.658 212.651 220.763 219.139 224.27C221.968 225.777 239.589 223.193 205.455 196.89ZM236.852 219.194C238.175 231.13 236.822 241.497 233.008 250.081C255.273 217.994 273.109 242.543 236.852 219.194ZM283.626 242.82C251.214 232.422 250.445 254.265 281.012 248.604C296.85 275.338 312.81 260.387 283.626 242.82ZM279.198 252.572C244.571 266.139 250.937 284.352 271.264 270.077C273.909 294.781 291.776 287.582 279.198 252.572ZM233.716 293.55C236.699 303.241 241.957 313.085 247.523 322.407C258.194 320.438 269.081 317.946 278.337 313.793C315.485 298.749 314.102 257.279 296.819 248.481C310.381 259.987 298.08 276.076 283.411 256.172C295.927 289.397 274.739 296.996 269.788 273.4C248.784 285.182 240.543 264.232 273.786 251.773C249.153 253.834 253.151 233.96 270.741 236.606C252.69 229.407 220.585 255.68 233.716 293.55ZM124.115 276.292C150.593 270.754 243.649 292.289 231.502 215.533C216.71 205.319 228.365 211.287 228.549 219.563C228.703 225.623 219.078 234.852 209.545 215.44C216.956 255.957 183.067 256.233 195.429 212.795C188.879 224.823 176.394 244.758 164.77 237.406C167.783 256.449 158.834 264.478 141.152 261.248C142.874 263.771 142.936 266.909 141.09 268.877C137.154 273.061 133.895 271.4 132.08 268.139C128.82 266.386 127.068 263.155 131.158 259.125C133.095 257.249 136.232 257.249 138.784 258.91C135.186 241.313 143.028 232.176 162.125 234.791C154.529 223.316 174.21 210.426 186.081 203.627C142.936 216.917 142.505 182.984 183.159 189.568C163.54 180.431 172.55 170.617 178.639 170.648C186.911 170.679 193.123 182.215 182.606 167.602C105.664 157.05 129.128 249.681 124.115 276.292ZM83.4303 122.841C79.4633 132.162 77.1877 143.114 75.4655 153.82C84.9064 159.173 94.8394 164.249 104.588 167.018C142.69 179.385 168.275 146.714 160.71 128.87C163.693 146.406 143.95 150.836 145.488 126.132C133.741 159.634 112.645 151.82 123.962 130.562C100.313 126.071 107.448 104.721 140.906 116.565C120.702 102.29 136.539 89.6463 148.317 102.967C139.184 85.8931 97.6993 85.3701 83.4303 122.841ZM144.596 120.687C109.324 108.812 102.527 126.84 127.283 128.993C113.444 149.636 131.742 155.635 144.596 120.687Z" fill="#B68E59" fill-opacity="0.5"/>
</svg>
